<?xml version="1.0" encoding="UTF-8"?>
<svg width="500px" height="71px" viewBox="0 0 500 71" version="1.1" xmlns="http://www.w3.org/2000/svg" xmlns:xlink="http://www.w3.org/1999/xlink">
    <title>你不会百度吗</title>
    <g id="页面-1" stroke="none" stroke-width="1" fill="none" fill-rule="evenodd">
        <path d="M22.2,35.45 C22.9666667,34.05 23.7,32.5833333 24.4,31.05 C25.1,29.5166667 25.75,27.95 26.35,26.35 L26.35,26.35 L38.15,26.35 L36.15,32.15 L43.7,34.55 L46.5,26.5 L46.5,18.55 L29,18.55 C29.1666667,18.05 29.3166667,17.5416667 29.45,17.025 C29.5833333,16.5083333 29.7166667,16 29.85,15.5 L29.85,15.5 L21.5,14.05 C21.2,15.45 20.775,16.9833333 20.225,18.65 C19.675,20.3166667 19.075,21.9666667 18.425,23.6 C17.775,25.2333333 17.0916667,26.7916667 16.375,28.275 C15.6583333,29.7583333 14.9833333,31 14.35,32 L14.35,32 L22.2,35.45 Z M13.9,60.6 L13.9,55.05 L19.95,57.1 C20.65,55.5333333 21.325,53.9 21.975,52.2 C22.625,50.5 23.225,48.8083333 23.775,47.125 C24.325,45.4416667 24.8166667,43.775 25.25,42.125 C25.6833333,40.475 26.0333333,38.9166667 26.3,37.45 L26.3,37.45 L19.05,35.8 C18.8166667,36.9666667 18.5083333,38.2166667 18.125,39.55 C17.7416667,40.8833333 17.325,42.2416667 16.875,43.625 C16.425,45.0083333 15.9416667,46.3833333 15.425,47.75 C14.9083333,49.1166667 14.4,50.4166667 13.9,51.65 L13.9,51.65 L13.9,25.55 C14.5333333,24.05 15.1166667,22.5166667 15.65,20.95 C16.1833333,19.3833333 16.6833333,17.7666667 17.15,16.1 L17.15,16.1 L9.25,14.3 C8.88333333,15.9666667 8.41666667,17.6416667 7.85,19.325 C7.28333333,21.0083333 6.65,22.6416667 5.95,24.225 C5.25,25.8083333 4.5,27.3166667 3.7,28.75 C2.9,30.1833333 2.08333333,31.5 1.25,32.7 L1.25,32.7 L3.15,43.55 C4.31666667,42.0833333 5.43333333,40.5666667 6.5,39 L6.5,39 L6.5,60.6 L13.9,60.6 Z M25.15,61 L28.85,60.65 C30.05,60.55 31.0583333,60.3916667 31.875,60.175 C32.6916667,59.9583333 33.3416667,59.6333333 33.825,59.2 C34.3083333,58.7666667 34.6583333,58.175 34.875,57.425 C35.0916667,56.675 35.2,55.7 35.2,54.5 L35.2,54.5 L35.2,29.4 L27.05,29.4 L27.05,49.9 C27.05,50.6 26.8916667,51.125 26.575,51.475 C26.2583333,51.825 25.6166667,52.0666667 24.65,52.2 L24.65,52.2 L22.75,52.45 L25.15,61 Z M41.25,56.95 L48.6,55.05 C48.2333333,53.6166667 47.8166667,52.1 47.35,50.5 C46.8833333,48.9 46.3833333,47.275 45.85,45.625 C45.3166667,43.975 44.7583333,42.325 44.175,40.675 C43.5916667,39.025 43.0166667,37.4333333 42.45,35.9 L42.45,35.9 L35.55,37.35 C36.6166667,40.5166667 37.6416667,43.7166667 38.625,46.95 C39.6083333,50.1833333 40.4833333,53.5166667 41.25,56.95 L41.25,56.95 Z M78.55,60.3 L78.55,38.9 C79.65,39.7333333 80.8083333,40.6583333 82.025,41.675 C83.2416667,42.6916667 84.4666667,43.7416667 85.7,44.825 C86.9333333,45.9083333 88.125,46.9916667 89.275,48.075 C90.425,49.1583333 91.45,50.2 92.35,51.2 L92.35,51.2 L97.65,43.55 C96.7166667,42.6833333 95.6166667,41.7333333 94.35,40.7 C93.0833333,39.6666667 91.7583333,38.6083333 90.375,37.525 C88.9916667,36.4416667 87.6083333,35.3916667 86.225,34.375 C84.8416667,33.3583333 83.5666667,32.45 82.4,31.65 L82.4,31.65 L78.55,36.1 L78.55,33.05 L75.1,33.05 C76.1333333,31.7166667 77.125,30.3583333 78.075,28.975 C79.025,27.5916667 79.95,26.1166667 80.85,24.55 L80.85,24.55 L94.8,24.55 L94.8,16.3 L53.9,16.3 L53.9,24.55 L71.25,24.55 C69.0833333,28.0166667 66.3416667,31.275 63.025,34.325 C59.7083333,37.375 55.6,40.4333333 50.7,43.5 L50.7,43.5 L56.25,51 C58.9833333,48.9 61.4916667,46.8583333 63.775,44.875 C66.0583333,42.8916667 68.1833333,40.8666667 70.15,38.8 L70.15,38.8 L70.15,60.3 L78.55,60.3 Z M138.7,34.75 L138.7,31.4 C139.5,31.8333333 140.308333,32.2416667 141.125,32.625 C141.941667,33.0083333 142.733333,33.3666667 143.5,33.7 L143.5,33.7 L147.1,25.9 C142.666667,24.1333333 138.9,22.2916667 135.8,20.375 C132.7,18.4583333 130.083333,16.2666667 127.95,13.8 L127.95,13.8 L119.8,13.8 C117.8,16.1 115.216667,18.225 112.05,20.175 C108.883333,22.125 104.966667,24.0166667 100.3,25.85 L100.3,25.85 L103.95,33.5 C104.85,33.0666667 105.733333,32.65 106.6,32.25 C107.466667,31.85 108.316667,31.4166667 109.15,30.95 L109.15,30.95 L109.15,34.75 L138.7,34.75 Z M132.4,27.8 L114.85,27.8 C116.716667,26.6666667 118.416667,25.5416667 119.95,24.425 C121.483333,23.3083333 122.8,22.2 123.9,21.1 C125,22.2666667 126.275,23.4083333 127.725,24.525 C129.175,25.6416667 130.733333,26.7333333 132.4,27.8 L132.4,27.8 Z M138.45,61.5 L145.2,55.95 C143.733333,54.1166667 142.183333,52.2583333 140.55,50.375 C138.916667,48.4916667 137.366667,46.8 135.9,45.3 L135.9,45.3 L145.7,45.3 L145.7,38.05 L101.85,38.05 L101.85,45.3 L112.95,45.3 C111.916667,46.6 110.85,47.8166667 109.75,48.95 C109.183333,49.5166667 108.675,49.975 108.225,50.325 C107.775,50.675 107.325,50.9583333 106.875,51.175 C106.425,51.3916667 105.958333,51.5666667 105.475,51.7 C104.991667,51.8333333 104.45,51.9666667 103.85,52.1 L103.85,52.1 L106.25,60.15 C107.016667,60.05 107.75,59.9583333 108.45,59.875 C109.15,59.7916667 109.875,59.7083333 110.625,59.625 C111.375,59.5416667 112.183333,59.4583333 113.05,59.375 C113.916667,59.2916667 114.916667,59.2 116.05,59.1 C117.45,59 118.975,58.9083333 120.625,58.825 C122.275,58.7416667 123.975,58.65 125.725,58.55 C127.475,58.45 129.216667,58.35 130.95,58.25 C132.683333,58.15 134.3,58.0666667 135.8,58 C136.333333,58.6666667 136.816667,59.3 137.25,59.9 C137.683333,60.5 138.083333,61.0333333 138.45,61.5 L138.45,61.5 Z M117.7,51.55 C118.7,50.3833333 119.616667,49.3083333 120.45,48.325 C121.283333,47.3416667 122.116667,46.3333333 122.95,45.3 L122.95,45.3 L130.85,45.3 L127.7,47.7 C128.066667,48.1333333 128.483333,48.6416667 128.95,49.225 C129.416667,49.8083333 129.916667,50.4333333 130.45,51.1 C129.316667,51.1666667 128.158333,51.2166667 126.975,51.25 C125.791667,51.2833333 124.633333,51.325 123.5,51.375 C122.366667,51.425 121.3,51.4666667 120.3,51.5 C119.3,51.5333333 118.433333,51.55 117.7,51.55 Z" id="你不会" fill="#3470F2" fill-rule="nonzero"></path>
        <path d="M176.35,55 C179.05,55 181.291667,54.7666667 183.075,54.3 C184.858333,53.8333333 186.275,53.1666667 187.325,52.3 C188.375,51.4333333 189.108333,50.375 189.525,49.125 C189.941667,47.875 190.15,46.4666667 190.15,44.9 C190.15,42.6 189.608333,40.8333333 188.525,39.6 C187.441667,38.3666667 186,37.4666667 184.2,36.9 L184.2,36.9 L184.2,36.7 C186.1,36.1666667 187.416667,35.325 188.15,34.175 C188.883333,33.025 189.25,31.55 189.25,29.75 C189.25,28.1833333 189.033333,26.8083333 188.6,25.625 C188.166667,24.4416667 187.416667,23.4583333 186.35,22.675 C185.283333,21.8916667 183.85,21.3 182.05,20.9 C180.25,20.5 177.983333,20.3 175.25,20.3 L175.25,20.3 L162.3,20.3 L162.3,55 L176.35,55 Z M174.1,33.95 L172.25,33.95 L172.25,28.1 L174.1,28.1 C175.966667,28.1 177.308333,28.2666667 178.125,28.6 C178.941667,28.9333333 179.35,29.7166667 179.35,30.95 C179.35,32.25 178.941667,33.075 178.125,33.425 C177.308333,33.775 175.966667,33.95 174.1,33.95 L174.1,33.95 Z M174.85,47.15 L172.25,47.15 L172.25,40.85 L174.85,40.85 C175.883333,40.85 176.733333,40.9083333 177.4,41.025 C178.066667,41.1416667 178.6,41.325 179,41.575 C179.4,41.825 179.683333,42.1583333 179.85,42.575 C180.016667,42.9916667 180.1,43.5 180.1,44.1 C180.1,44.7 180.016667,45.2 179.85,45.6 C179.683333,46 179.4,46.3166667 179,46.55 C178.6,46.7833333 178.058333,46.9416667 177.375,47.025 C176.691667,47.1083333 175.85,47.15 174.85,47.15 L174.85,47.15 Z M203.15,55.5 C204.35,55.5 205.391667,55.4083333 206.275,55.225 C207.158333,55.0416667 207.916667,54.8 208.55,54.5 C209.183333,54.2 209.7,53.875 210.1,53.525 C210.5,53.175 210.8,52.8333333 211,52.5 L211,52.5 L211.75,55 L220.35,55 L220.35,36.65 C220.35,35.0833333 220.108333,33.725 219.625,32.575 C219.141667,31.425 218.366667,30.475 217.3,29.725 C216.233333,28.975 214.866667,28.425 213.2,28.075 C211.533333,27.725 209.516667,27.55 207.15,27.55 C206.183333,27.55 205.05,27.5833333 203.75,27.65 C202.45,27.7166667 201.283333,27.8333333 200.25,28 L200.25,28 L200.25,35.95 C201.983333,35.65 203.833333,35.5 205.8,35.5 C206.8,35.5 207.616667,35.5333333 208.25,35.6 C208.883333,35.6666667 209.391667,35.8166667 209.775,36.05 C210.158333,36.2833333 210.433333,36.6 210.6,37 C210.766667,37.4 210.866667,37.95 210.9,38.65 L210.9,38.65 L205.35,38.65 C201.416667,38.65 198.533333,39.2916667 196.7,40.575 C194.866667,41.8583333 193.95,44.05 193.95,47.15 C193.95,50.05 194.775,52.1666667 196.425,53.5 C198.075,54.8333333 200.316667,55.5 203.15,55.5 Z M206.15,48.45 C205.183333,48.45 204.441667,48.3333333 203.925,48.1 C203.408333,47.8666667 203.15,47.4 203.15,46.7 C203.15,45.9 203.433333,45.3583333 204,45.075 C204.566667,44.7916667 205.6,44.65 207.1,44.65 L207.1,44.65 L210.9,44.65 L210.9,46.75 C210.533333,47.2166667 209.941667,47.6166667 209.125,47.95 C208.308333,48.2833333 207.316667,48.45 206.15,48.45 Z M231.1,25.2 C232.2,25.2 233.083333,25.15 233.75,25.05 C234.416667,24.95 234.941667,24.7416667 235.325,24.425 C235.708333,24.1083333 235.958333,23.625 236.075,22.975 C236.191667,22.325 236.25,21.45 236.25,20.35 C236.25,19.25 236.191667,18.3916667 236.075,17.775 C235.958333,17.1583333 235.708333,16.6916667 235.325,16.375 C234.941667,16.0583333 234.416667,15.8583333 233.75,15.775 C233.083333,15.6916667 232.2,15.65 231.1,15.65 C230,15.65 229.116667,15.6916667 228.45,15.775 C227.783333,15.8583333 227.266667,16.0583333 226.9,16.375 C226.533333,16.6916667 226.283333,17.1583333 226.15,17.775 C226.016667,18.3916667 225.95,19.25 225.95,20.35 C225.95,21.45 226.016667,22.325 226.15,22.975 C226.283333,23.625 226.533333,24.1083333 226.9,24.425 C227.266667,24.7416667 227.783333,24.95 228.45,25.05 C229.116667,25.15 230,25.2 231.1,25.2 Z M235.85,55 L235.85,28 L226.35,28 L226.35,55 L235.85,55 Z" id="Bai" fill="#E11402" fill-rule="nonzero"></path>
        <path d="M340.25,57.5 L340.25,28.07 L326.57,28.07 C326.72,27.56 326.8775,26.96 327.0425,26.27 C327.2075,25.58 327.365,24.935 327.515,24.335 L327.515,24.335 L343.94,24.335 L343.94,17.675 L304.565,17.675 L304.565,24.335 L319.55,24.335 C319.43,24.935 319.295,25.5575 319.145,26.2025 C318.995,26.8475 318.845,27.47 318.695,28.07 L318.695,28.07 L308.255,28.07 L308.255,57.5 L340.25,57.5 Z M332.555,39.5 L315.725,39.5 L315.725,34.55 L332.555,34.55 L332.555,39.5 Z M332.555,50.93 L315.725,50.93 L315.725,45.665 L332.555,45.665 L332.555,50.93 Z M354.245,58.31 C354.665,57.35 355.04,56.4275 355.37,55.5425 C355.7,54.6575 356.015,53.765 356.315,52.865 L356.315,52.865 L359.375,58.175 C364.445,56.975 368.72,55.73 372.2,54.44 C374.18,55.19 376.355,55.85 378.725,56.42 C381.095,56.99 383.84,57.56 386.96,58.13 L386.96,58.13 L389.885,51.56 C388.085,51.38 386.4275,51.1925 384.9125,50.9975 C383.3975,50.8025 381.995,50.6 380.705,50.39 C382.895,49.01 384.785,47.48 386.375,45.8 L386.375,45.8 L386.375,40.355 L359.51,40.355 L359.51,45.26 L362.57,45.26 L360.23,47.24 C360.95,47.84 361.6625,48.4025 362.3675,48.9275 C363.0725,49.4525 363.77,49.955 364.46,50.435 C363.26,50.705 362.0075,50.9525 360.7025,51.1775 C359.3975,51.4025 358.025,51.62 356.585,51.83 C356.885,50.78 357.155,49.67 357.395,48.5 C357.635,47.33 357.8375,46.055 358.0025,44.675 C358.1675,43.295 358.2875,41.765 358.3625,40.085 C358.4375,38.405 358.475,36.515 358.475,34.415 L358.475,34.415 L358.475,32.885 L362.795,32.885 L362.795,38.78 L383.63,38.78 L383.63,32.885 L388.805,32.885 L388.805,27.08 L383.63,27.08 L383.63,24.65 L388.67,24.65 L388.67,18.485 L375.35,18.485 C375.26,18.125 375.1625,17.7575 375.0575,17.3825 C374.9525,17.0075 374.84,16.655 374.72,16.325 L374.72,16.325 L366.53,16.325 L367.205,18.485 L351.5,18.485 L351.5,35.405 C351.5,37.625 351.4175,39.5975 351.2525,41.3225 C351.0875,43.0475 350.84,44.66 350.51,46.16 C350.18,47.66 349.76,49.115 349.25,50.525 C348.74,51.935 348.155,53.435 347.495,55.025 L347.495,55.025 L354.245,58.31 Z M362.795,27.08 L358.475,27.08 L358.475,24.65 L362.795,24.65 L362.795,27.08 Z M376.745,27.08 L369.635,27.08 L369.635,24.65 L376.745,24.65 L376.745,27.08 Z M376.745,34.55 L369.635,34.55 L369.635,32.12 L376.745,32.12 L376.745,34.55 Z M372.02,48.14 C371,47.72 370.0775,47.2775 369.2525,46.8125 C368.4275,46.3475 367.625,45.83 366.845,45.26 L366.845,45.26 L377.78,45.26 C376.94,45.8 376.04,46.31 375.08,46.79 C374.12,47.27 373.1,47.72 372.02,48.14 Z" id="百度" fill="#E11402" fill-rule="nonzero"></path>
        <path d="M434.05,60.9 L438.7,60.45 C440.3,60.3166667 441.625,60.1083333 442.675,59.825 C443.725,59.5416667 444.566667,59.1 445.2,58.5 C445.833333,57.9 446.283333,57.075 446.55,56.025 C446.816667,54.975 446.983333,53.6 447.05,51.9 C447.083333,51.1333333 447.116667,50.0666667 447.15,48.7 C447.183333,47.3333333 447.216667,45.7916667 447.25,44.075 C447.283333,42.3583333 447.316667,40.5166667 447.35,38.55 C447.383333,36.5833333 447.433333,34.6166667 447.5,32.65 L447.5,32.65 L444.1,32.65 L445.25,15.65 L424,15.65 L424,23.25 L436.75,23.25 L435.95,32.65 L431.6,32.65 L432.15,25.45 L425.05,25.3 L423.9,40.2 L439.7,40.2 L439.4,49.7 C439.333333,50.4 439.241667,50.9583333 439.125,51.375 C439.008333,51.7916667 438.825,52.1166667 438.575,52.35 C438.325,52.5833333 437.991667,52.75 437.575,52.85 C437.158333,52.95 436.616667,53.0333333 435.95,53.1 L435.95,53.1 L431.9,53.45 L434.05,60.9 Z M421.4,56 L421.4,16.95 L404.5,16.95 L404.5,56 L421.4,56 Z M414.6,47.8 L411.55,47.8 L411.55,24.95 L414.6,24.95 L414.6,47.8 Z M437.35,50.9 L437.35,43.15 L423.2,43.15 L423.2,50.9 L437.35,50.9 Z M468.5,42.5 L468.5,41.65 C468.5,41.3166667 468.533333,41.0166667 468.6,40.75 C468.666667,40.4833333 468.825,40.1916667 469.075,39.875 C469.325,39.5583333 469.683333,39.1916667 470.15,38.775 C470.616667,38.3583333 471.233333,37.85 472,37.25 C472.866667,36.5833333 473.566667,35.9333333 474.1,35.3 C474.633333,34.6666667 475.05,34.0083333 475.35,33.325 C475.65,32.6416667 475.85,31.9083333 475.95,31.125 C476.05,30.3416667 476.1,29.4666667 476.1,28.5 C476.1,26.7333333 475.875,25.275 475.425,24.125 C474.975,22.975 474.266667,22.0666667 473.3,21.4 C472.333333,20.7333333 471.058333,20.2666667 469.475,20 C467.891667,19.7333333 465.983333,19.6 463.75,19.6 C462.45,19.6 461.141667,19.6583333 459.825,19.775 C458.508333,19.8916667 457.333333,20.0833333 456.3,20.35 L456.3,20.35 L456.3,28.15 C457.1,27.95 457.941667,27.7916667 458.825,27.675 C459.708333,27.5583333 460.616667,27.5 461.55,27.5 C463.216667,27.5 464.366667,27.6416667 465,27.925 C465.633333,28.2083333 465.95,28.9 465.95,30 C465.95,30.8 465.825,31.425 465.575,31.875 C465.325,32.325 464.816667,32.8833333 464.05,33.55 C463.45,34.0833333 462.941667,34.5833333 462.525,35.05 C462.108333,35.5166667 461.766667,36.0083333 461.5,36.525 C461.233333,37.0416667 461.041667,37.5916667 460.925,38.175 C460.808333,38.7583333 460.75,39.45 460.75,40.25 L460.75,40.25 L460.75,42.5 L468.5,42.5 Z M464.65,55.3 C465.783333,55.3 466.683333,55.2333333 467.35,55.1 C468.016667,54.9666667 468.525,54.7166667 468.875,54.35 C469.225,53.9833333 469.45,53.4833333 469.55,52.85 C469.65,52.2166667 469.7,51.3833333 469.7,50.35 C469.7,49.3166667 469.65,48.475 469.55,47.825 C469.45,47.175 469.225,46.675 468.875,46.325 C468.525,45.975 468.016667,45.7333333 467.35,45.6 C466.683333,45.4666667 465.783333,45.4 464.65,45.4 C463.516667,45.4 462.616667,45.4666667 461.95,45.6 C461.283333,45.7333333 460.775,45.975 460.425,46.325 C460.075,46.675 459.85,47.175 459.75,47.825 C459.65,48.475 459.6,49.3166667 459.6,50.35 C459.6,51.3833333 459.65,52.2166667 459.75,52.85 C459.85,53.4833333 460.075,53.9833333 460.425,54.35 C460.775,54.7166667 461.283333,54.9666667 461.95,55.1 C462.616667,55.2333333 463.516667,55.3 464.65,55.3 Z" id="吗？" fill="#3470F2" fill-rule="nonzero"></path>
        <g id="baidu" transform="translate(241.040000, 0.680000)" fill="#3470F3" fill-rule="nonzero">
            <path d="M19.9332079,0.547792527 C19.1704633,0.813487011 17.9917582,1.61057046 17.2637146,2.37419929 C15.4957696,4.26686779 14.7332504,6.55818594 14.767726,9.87861157 C14.767726,12.1366909 14.9412307,12.867081 15.8772546,14.7599653 C17.8531798,18.8774744 21.7703294,20.1724922 24.8904841,17.7484347 C28.8770356,14.6602489 29.6050792,7.35505356 26.4157479,2.97185 C25.5836015,1.84281032 22.6371767,0.016619395 21.7011528,0.0498581851 C21.4931726,0.0830969751 20.6957271,0.282313879 19.9332079,0.547792527 L19.9332079,0.547792527 Z M38.5836078,1.94252669 C37.2663243,2.20822117 34.1808705,5.16345178 33.210371,7.08935907 C31.5463035,10.343523 31.6157054,14.4942708 33.3836504,17.0510676 C34.9436151,19.2759082 38.4448041,20.2055151 41.1834739,19.1097142 C44.8581676,17.6487183 47.6660139,12.2694302 46.7993919,8.48409324 C45.7941915,4.26686779 41.9809194,1.24515961 38.5836078,1.94252669 Z M5.37323681,14.4942708 C3.53588996,15.0919215 1.52526377,17.3167621 0.831921089,19.4418863 C-0.55476428,23.7918511 -0.0347009339,27.3447324 2.3918858,30.0012456 C4.16005611,31.8939141 5.33853588,32.3920642 7.93862728,32.1928473 C10.7117727,31.9936304 12.479943,30.831352 13.7625256,28.307794 C14.5944467,26.7138429 14.6985495,26.0829534 14.6985495,23.459679 C14.6985495,21.0688603 14.5597457,20.2055151 13.9358049,19.1097142 C12.7918007,16.98459 11.57862,15.7892886 9.63717039,14.8594658 C7.59184327,13.8633813 7.27998553,13.8633813 5.37323681,14.4942708 L5.37323681,14.4942708 Z M47.2153525,19.1761918 C44.6154864,20.4379708 43.3329038,23.2604621 43.3329038,27.7431662 C43.3329038,31.0638077 43.7835653,32.6245199 45.1008488,34.0855158 C46.5567107,35.6794669 48.7061406,36.3766181 51.4448104,36.1774012 C53.9752746,35.9781843 55.3272591,35.314056 56.4367876,33.7865826 C57.5805665,32.1928473 57.8926495,30.7981132 57.8926495,27.41121 C57.8926495,24.721458 57.7887721,24.1570461 56.9219247,22.5963338 C55.5007637,20.0062982 53.6634169,18.8442356 50.6820659,18.7112804 C49.0179984,18.6450187 48.0474989,18.777758 47.2153525,19.1761918 L47.2153525,19.1761918 Z M24.9596607,25.6512808 C22.6716523,26.6475811 21.3196679,27.7431662 19.7944041,29.8685062 C17.749077,32.7240205 15.8425536,34.6831665 11.6824975,38.1365473 C5.37323681,43.3498573 4.05595331,45.3090034 4.02125237,49.3600349 C3.95185051,54.2413886 6.89850058,58.5581146 11.0238558,59.6869384 C13.4157416,60.3510667 19.6211248,60.1850886 24.266318,59.2885046 C27.8716098,58.6243763 31.4769016,58.7905703 35.8796389,59.8531324 C40.3168519,60.9156945 45.2394272,60.9156945 47.7701167,59.8531324 C52.5541137,57.7942699 55.0154013,51.5183979 53.0047751,46.3383267 C52.4500109,44.9105696 51.7566682,44.0139856 50.1620025,42.5862285 C45.1702507,38.1697861 39.5196317,32.5912811 37.7169858,30.26694 C35.7063596,27.6769044 33.6263316,25.9834528 31.5810044,25.3525633 C29.7436576,24.7546968 26.7276056,24.887652 24.9596607,25.6512808 Z M25.9997874,34.9156222 C26.4504488,35.1813167 26.5196254,36.7752678 26.6237282,45.2095028 L26.7276056,55.1709956 L22.6024758,55.1709956 C17.5410967,55.1709956 15.5651715,54.6730612 13.7972265,52.9463708 C12.1678599,51.3524198 11.7866003,50.3230964 11.7866003,47.6998221 C11.7866003,45.1430253 12.1678599,44.0472244 13.6239472,42.6194673 C15.4610687,40.7598217 16.9171559,40.2286486 20.1064872,40.2286486 L22.8796326,40.2286486 L22.8796326,34.583666 L24.1971414,34.583666 C24.8904841,34.583666 25.7224052,34.7496441 25.9997874,34.9156222 L25.9997874,34.9156222 Z M32.9329889,45.4417427 C32.9329889,51.4851591 32.9676898,51.5183979 36.6421582,51.5183979 L39.1728477,51.5183979 L39.1728477,40.8927769 L43.4020804,40.8927769 L43.2635019,47.2349107 C43.1249235,55.2707119 43.4714822,54.8390393 37.0236431,54.8390393 C32.1702443,54.8390393 31.1650439,54.5733448 29.8477604,52.9796096 C29.1888933,52.1492874 29.1197168,51.6845918 29.1197168,46.5375436 C29.1197168,43.4828125 29.2235942,40.8927769 29.362398,40.7930605 C29.4662754,40.6603212 30.3328975,40.5606048 31.2689214,40.5606048 L32.9329889,40.5606048 L32.9329889,45.4417427 L32.9329889,45.4417427 Z M17.749077,43.8812463 C15.8078527,45.0100701 15.11451,47.4673664 16.0852348,49.6922069 C16.7785775,51.2196804 18.2691404,51.9168317 20.730428,51.7840923 L22.7063533,51.6845918 L22.7063533,43.3830961 L20.7998299,43.2833797 C19.3784436,43.217118 18.615699,43.3830961 17.749077,43.8812463 Z" id="形状"></path>
        </g>
    </g>
</svg>